<?xml version="1.0" standalone="no"?>
<!DOCTYPE svg PUBLIC "-//W3C//DTD SVG 1.1//EN" "http://www.w3.org/Graphics/SVG/1.1/DTD/svg11.dtd" >
<!--
2013-9-30: Created.
-->
<svg>
<metadata>
Created by iconfont
</metadata>
<defs>

<font id="iconfont" horiz-adv-x="1024" >
  <font-face
    font-family="iconfont"
    font-weight="500"
    font-stretch="normal"
    units-per-em="1024"
    ascent="896"
    descent="-128"
  />
    <missing-glyph />
    
    <glyph glyph-name="x" unicode="x" horiz-adv-x="1001"
d="M281 543q-27 -1 -53 -1h-83q-18 0 -36.5 -6t-32.5 -18.5t-23 -32t-9 -45.5v-76h912v41q0 16 -0.5 30t-0.5 18q0 13 -5 29t-17 29.5t-31.5 22.5t-49.5 9h-133v-97h-438v97zM955 310v-52q0 -23 0.5 -52t0.5 -58t-10.5 -47.5t-26 -30t-33 -16t-31.5 -4.5q-14 -1 -29.5 -0.5
t-29.5 0.5h-32l-45 128h-439l-44 -128h-29h-34q-20 0 -45 1q-25 0 -41 9.5t-25.5 23t-13.5 29.5t-4 30v167h911zM163 247q-12 0 -21 -8.5t-9 -21.5t9 -21.5t21 -8.5q13 0 22 8.5t9 21.5t-9 21.5t-22 8.5zM316 123q-8 -26 -14 -48q-5 -19 -10.5 -37t-7.5 -25t-3 -15t1 -14.5
t9.5 -10.5t21.5 -4h37h67h81h80h64h36q23 0 34 12t2 38q-5 13 -9.5 30.5t-9.5 34.5q-5 19 -11 39h-368zM336 498v228q0 11 2.5 23t10 21.5t20.5 15.5t34 6h188q31 0 51.5 -14.5t20.5 -52.5v-227h-327z" />
    

    
    <glyph glyph-name="list" unicode="&#58887;" d="M381.468365 89.93761300000006L381.468365 245.32359099999996l543.881899 0 0-155.387L381.468365 89.93659100000002zM381.468365 478.404096l543.881899 0 0-155.387L381.468365 323.01709600000004 381.468365 478.40409zM381.468365 711.490765l543.881899 0L925.350264 556.098613 381.468365 556.098613 381.468365 711.490729zM148.376269 245.32357100000002l155.393366 0 0-155.387L148.376268 89.93657199999996 148.376268 245.32359099999996zM148.376269 478.404096l155.393366 0 0-155.387L148.376268 323.01709600000004 148.376268 478.40409zM148.376269 711.490765l155.393366 0L303.769635 556.098613 148.376268 556.098613 148.376268 711.490729z"  horiz-adv-x="1024" />

    
    <glyph glyph-name="circular" unicode="&#58890;" d="M510.44304-44.31504199999995c-237.326197 0-430.396447 193.21249-430.396447 430.695253 0 237.502206 193.07025 430.717765 430.396447 430.717765 237.303684 0 430.40668-193.236026 430.40668-430.717765C940.84972 148.89847099999997 747.791749-44.31504199999995 510.44304-44.31504199999995zM510.44304 771.585409c-212.213239 0-384.861368-172.782182-384.861368-385.182686 0-212.403574 172.647105-385.161197 384.861368-385.161197 212.224496 0 384.870578 172.782182 384.870578 385.161197C895.314641 598.803227 722.667535 771.585409 510.44304 771.585409z"  horiz-adv-x="1024" />

    
    <glyph glyph-name="print" unicode="&#58990;" d="M695.090 480.725c-0-12.509 10.14-22.649 22.649-22.649s22.649 10.14 22.649 22.649c0 12.509-10.14 22.649-22.649 22.649-12.509 0-22.649-10.14-22.649-22.649zM781.881 593.749h-20.16v107.698c0 39.211-31.9 71.111-71.111 71.111h-338.51c-39.211 0-71.111-31.9-71.111-71.111v-107.698h-38.869c-54.898 0-99.556-44.658-99.556-99.556l-0-224.043c0-54.898 43.804-99.556 97.65-99.556h40.768v-118.265c0-39.211 31.9-71.111 71.111-71.111h338.51c39.211 0 71.111 31.9 71.111 71.111v118.265h31.41c48.697 0 88.306 44.658 88.306 99.556l-0 224.043c0.007 54.898-44.651 99.556-99.548 99.556zM337.877 701.447c0 7.708 6.514 14.222 14.222 14.222h338.51c7.708 0 14.222-6.514 14.222-14.222v-107.698h-366.955v107.698zM704.832 52.331c0-7.708-6.514-14.222-14.222-14.222l-338.51-0c-7.708 0-14.222 6.514-14.222 14.222l-0 264.1c0 7.708 6.514 14.222 14.222 14.222h338.51c7.708 0 14.222-6.514 14.222-14.222l0-264.1zM824.548 270.151c0-23.125-14.386-42.667-31.417-42.667h-31.41v88.946c0 39.211-31.9 71.111-71.111 71.111l-338.51 0c-39.211 0-71.111-31.9-71.111-71.111l-0-88.946h-40.768c-22.478 0-40.761 19.136-40.761 42.667l0 224.043c0 23.531 19.136 42.667 42.667 42.667h539.755c23.531 0 42.667-19.136 42.667-42.667l-0-224.043zM626.084 210.66h-220.494c-11.783 0-21.333 9.55-21.333 21.333s9.55 21.333 21.333 21.333h220.494c11.783 0 21.333-9.55 21.333-21.333s-9.55-21.333-21.333-21.333zM626.084 108.388h-220.494c-11.783 0-21.333 9.55-21.333 21.333s9.55 21.333 21.333 21.333h220.494c11.783 0 21.333-9.55 21.333-21.333s-9.55-21.333-21.333-21.333z"  horiz-adv-x="1024" />

    
    <glyph glyph-name="SearchCategory" unicode="&#59220;" d="M967.9234 79.793046l-147.416093 192.48379c52.29229 49.884092 85.146985 119.721821 85.146985 197.472199 0 150.684361-122.990089 273.330422-274.018478 273.330422-151.200403 0-274.018478-122.646061-274.018478-273.330422s122.990089-273.330422 274.018478-273.330422c48.679993 0 94.263733 12.901058 133.998992 35.090879l147.932135-193.171846c6.70855-8.77272 16.857383-13.417101 27.350244-13.417101 7.224593 0 14.621199 2.236183 20.641693 7.052579C976.524105 43.49806799999999 979.448345 64.82781799999998 967.9234 79.793046L967.9234 79.793046zM421.090543 469.749034c0 115.765496 94.435747 209.857215 210.545271 209.857215s210.545271-94.091718 210.545271-209.857215-94.435747-209.857215-210.545271-209.857215S421.090543 353.98353799999995 421.090543 469.749034L421.090543 469.749034zM288.467663 607.188308L83.254829 607.188308c-18.921552 0-34.230808 15.309256-34.230808 34.058794s15.309256 34.058794 34.230808 34.058794l205.212834 0c18.921552 0 34.230808-15.309256 34.230808-34.058794C322.698471 622.497564 307.389216 607.188308 288.467663 607.188308L288.467663 607.188308zM280.210986 269.86863800000003L83.254829 269.86863800000003c-18.921552 0-34.230808 15.309256-34.230808 34.058794s15.309256 34.058794 34.230808 34.058794l196.956157 0c18.921552 0 34.230808-15.309256 34.230808-34.058794C314.441794 285.17789300000004 299.132538 269.86863800000003 280.210986 269.86863800000003L280.210986 269.86863800000003zM239.78767 438.958508l-156.532841 0c-18.921552 0-34.230808 15.309256-34.230808 34.230808 0 18.921552 15.309256 34.230808 34.230808 34.230808l156.532841 0c18.921552 0 34.230808-15.309256 34.230808-34.230808C273.846464 454.267764 258.537208 438.958508 239.78767 438.958508L239.78767 438.958508zM460.137746 94.75827300000003L83.254829 94.75827300000003c-18.921552 0-34.230808 15.309256-34.230808 34.230808s15.309256 34.230808 34.230808 34.230808l376.882916 0c18.921552 0 34.230808-15.309256 34.230808-34.230808C494.368554 110.06752900000004 479.059298 94.75827300000003 460.137746 94.75827300000003L460.137746 94.75827300000003z"  horiz-adv-x="1024" />

    
    <glyph glyph-name="sousuo" unicode="&#58961;" d="M966.4-28.8l-230.4 227.2c60.8 67.2 96 156.8 96 256 0 217.6-176 390.4-390.4 390.4-217.6 0-390.4-176-390.4-390.4 0-217.6 176-390.4 390.4-390.4 99.2 0 188.8 35.2 256 96l230.4-227.2c9.6-9.6 28.8-9.6 38.4 0C979.2-54.4 979.2-38.4 966.4-28.8zM102.4 454.4c0 185.6 150.4 339.2 339.2 339.2s339.2-150.4 339.2-339.2c0-89.6-35.2-172.8-92.8-233.6-3.2 0-3.2-3.2-6.4-3.2-3.2-3.2-3.2-3.2-3.2-6.4-60.8-57.6-144-92.8-233.6-92.8C256 115.2 102.4 268.8 102.4 454.4z"  horiz-adv-x="1024" />

    
    <glyph glyph-name="move" unicode="&#58947;" d="M955.791 398.486l-160.182 122.73c-3.644 3.689-8.796 6.006-14.419 6.006-11.292 0-20.425-9.156-20.425-20.469 0-5.646 2.295-10.752 5.983-14.464l82.644-70.767h-299.917v299.985l70.745-82.644c3.734-3.712 8.796-6.006 14.509-6.006 11.247 0 20.425 9.156 20.425 20.469 0 5.623-2.34 10.775-6.028 14.464l-122.617 160.227c-3.757 3.712-8.863 5.983-14.509 5.983-5.602 0-10.73-2.295-14.441-5.983l-122.662-160.227c-3.689-3.689-5.961-8.818-5.961-14.464 0-11.315 9.11-20.469 20.425-20.469 5.647 0 10.775 2.295 14.486 6.006l70.722 82.644v-299.985h-299.873l82.599 70.767c3.734 3.712 5.983 8.796 5.983 14.464 0 11.292-9.133 20.469-20.448 20.469-5.623 0-10.752-2.317-14.441-6.006l-160.16-122.73c-3.689-3.712-5.983-8.84-5.983-14.464 0-5.647 2.295-10.775 5.983-14.486l160.16-122.685c3.712-3.734 8.818-6.028 14.441-6.028 11.315 0 20.448 9.133 20.448 20.469 0 5.623-2.272 10.73-5.983 14.464l-82.599 70.745h299.85v-299.985l-70.722 82.689c-3.712 3.689-8.84 5.983-14.486 5.983-11.292 0-20.425-9.177-20.425-20.469 0-5.669 2.272-10.775 5.961-14.464l122.662-160.227c3.712-3.689 8.84-5.983 14.441-5.983 5.669 0 10.775 2.295 14.509 5.983l122.618 160.227c3.734 3.689 6.028 8.796 6.028 14.464 0 11.292-9.177 20.469-20.425 20.469-5.714 0-10.775-2.295-14.509-5.983l-70.745-82.689v299.985h299.895l-82.644-70.745c-3.689-3.734-5.983-8.84-5.983-14.464 0-11.337 9.133-20.469 20.425-20.469 5.623 0 10.775 2.295 14.419 6.028l160.182 122.685c3.689 3.712 5.983 8.818 5.983 14.486 0.023 5.623-2.249 10.752-5.939 14.464z"  horiz-adv-x="1024" />

    
    <glyph glyph-name="quit" unicode="&#58935;" d="M832 395.3792c0-13.056-5.76-24.8768-14.8352-32.9856l-148.0768-132.896c-7.8976-7.0016-18.3488-11.264-29.7472-11.264-24.6016 0-44.5248 19.7888-44.5248 44.2496 0 13.1968 5.76 24.8768 14.8352 32.9792l62.048 55.6544L472.5632 351.1168c-24.5248 0-44.3904 19.7888-44.3904 44.3904 0 24.4608 19.8656 44.2496 44.3904 44.2496l199.136 0-62.048 55.6544c-9.0752 8.1088-14.8352 19.8592-14.8352 32.9792 0 24.4608 19.9232 44.256 44.5248 44.256 11.3984 0 21.8496-4.2624 29.7472-11.4048l148.0768-132.8896C826.24 420.2496 832 408.4288 832 395.3792M406.0096 679.36L280.8384 679.36l0-590.7264 125.1712 0c24.5312 0 44.3904-19.9232 44.3904-44.3904 0-24.6016-19.9296-44.2496-44.3904-44.2496L236.4544-0.006399999999985084c-24.5248 0-44.448 19.648-44.448 44.2496L192.0064 723.6800000000001C192 748.1408 211.9296 768 236.4544 768l169.5552 0c24.4544 0 44.3904-19.8592 44.3904-44.32C450.4 699.2192 430.5408 679.36 406.0096 679.36"  horiz-adv-x="1024" />

    
    <glyph glyph-name="zhongguo" unicode="&#58940;" d="M756.73822593 124.57391167000003l49.14416314 0 0 49.6416378-49.14416314 0 0-49.6416378zM511.02745247 74.93922614999997l98.28214645 0 0-49.64550018-98.28214645 0 0 49.64550018zM895.61631394 660.64381028l-95.48501016 82.01688766c-7.02798843 5.99905014-16.75578117 7.59884834-25.31018256 4.01919364l-73.90820503-30.83029746-59.55791474-37.72078514c-7.86844253-5.06435394-12.24374771-14.15871621-11.25884056-23.48482133l7.42272378-73.08242798-68.75115396-47.7104473-81.03661538-9.67449188-64.77290153 35.54626464-40.24446487 79.27845955c-6.09560966 12.01432228-20.58958054 16.88014984-32.62862206 10.9722519l-87.33075141-43.04082871c-8.45011711-4.16982651-13.80801201-12.81306267-13.80801201-22.30138779l0-32.55755424-29.14398194-28.69671822-33.12223434 0c-6.33739472 0-12.48244285-2.47964858-17.05163955-6.95305825l-44.22966958-43.03928374c-10.02210617-9.77800369-10.02210617-25.96446991 0-35.74247361l38.77676011-37.73468971 22.26121902-106.52910233c1.17725372-5.6205368 4.2285347-10.68257332 8.69962692-14.25141334l80.63956261-65.28505326c4.37298774-3.52249146 9.78341103-5.45599937 15.38309097-5.45599937l88.85330201 0 0-54.01230813c0-13.70604515 11.0046959-24.82738495 24.56628799-24.82738494l98.92484666 0 44.77194785-30.7839489c7.76493072-5.35403252 17.83647537-5.74645042 25.99614143-1.04207038l60.83250047 35.10363578 83.93803595 31.91948891c4.47109222 1.69095039 8.3010292 4.71442222 11.15764618 8.58452797l52.8250122 73.27863693c3.04896354 4.27488327 4.71905708 9.38404084 4.7190571 14.59902764l0 72.28291511c0 6.70818328-2.70212173 13.11355591-7.41963388 17.77235984l-30.86042403 30.28415681 39.06489372 26.00927352c3.63681794 2.38772392 6.53746605 5.71168899 8.50496292 9.62891579l27.42136001 55.26371956 69.34132576 48.75097275c6.58304214 4.65725899 10.51726341 12.24529266 10.51726342 20.35706521l0 100.18012046c0 7.28522301-3.1965065 14.20197488-8.69962692 18.9063549l0 0zM855.16714287 554.56660652l-63.93167495-45.04617691c-3.33632468-2.37536431-6.09020234-5.55024147-7.90861131-9.23418044l-27.22901344-54.89215852-59.2636013-39.27655219c-13.12591552-8.73361587-14.89411355-27.44685173-3.6375904-38.52107049l45.35671232-44.58114624 0-53.71181487-43.78781318-60.77997208-80.53914069-30.9693432-50.91158867-29.09068107-38.38202477 26.40323639c-4.07867432 2.83885002-8.89351845 4.32045937-13.85745049 4.32045937l-81.97053908 0 0 54.01385307c0 13.70604515-11.00701332 24.82738495-24.57246781 24.82738495l-104.7678566 0-67.08260536 54.26799775-21.96227074 105.33639907c-1.03666306 4.87818718-3.44060898 9.33923721-7.03185081 12.76748657l-25.79684258 25.16495705 22.55475999 18.22348595 29.43675041-1e-8c6.38915062 0 12.58054733 2.52367973 17.15592383 7.04498292l43.68275642 43.03928374c4.6696186 4.62327004 7.3732853 11.02014541 7.3732853 17.72755623l-4.08176423 7.78578759 56.02074624 45.2315712 32.68269539-64.38357354c2.26026535-4.42474365 5.79743386-8.08550835 10.12330056-10.47245979l78.33294868-43.05241584c4.4718647-2.38617897 9.58179474-3.37108612 14.64692116-2.76778221l94.74188805 11.3515377c3.93190384 0.49901962 7.71626472 1.9018364 11.00701332 4.18218613l85.80124854 59.46907996c7.42581367 5.16863823 11.45273209 13.94937515 10.51880837 22.98811913l-7.36865044 72.43200301 42.950449 27.55113603 56.21927261 23.13720703 75.47942161-64.83392716 0-75.65322875-0.00077248 0zM855.16714287 554.56660652z"  horiz-adv-x="1024" />

    
    <glyph glyph-name="save" unicode="&#58904;" d="M765.63092041 8.21484375H258.36907959c-69.50390625 0-126.05657959 56.50982666-126.05657959 126.03515625V633.72857666c0 69.52532959 56.55267334 126.07800293 126.05657959 126.07800293H765.65234375c69.48248291-0.02142334 126.03515625-56.55267334 126.03515625-126.07800293v-499.47857666c0-69.52532959-56.53125-126.03515625-126.05657959-126.03515625zM258.36907959 710.59469604c-42.3984375 0-76.88671875-34.46685791-76.88671875-76.88671875v-499.45797729c0-42.3984375 34.48828125-76.90814209 76.88671875-76.90814209H765.65234375c42.3984375 0 76.88671875 34.50970459 76.88671875 76.90814209V633.72857666c0 42.41986084-34.48828125 76.88671875-76.88671875 76.88671875H258.36907959v-0.02059937zM755.10546875 382.81842041000004H268.89453125V759.78515625h486.23236084v-376.96673584h-0.02142334z m-437.0625 49.19128418h387.9140625V710.59469604H318.04296875v-278.58581542z m266.35061646 206.23260498h49.1484375V474.32409668H584.39440918V638.2431335399999z m0 0"  horiz-adv-x="1024" />

    
    <glyph glyph-name="weizhi" unicode="&#58895;" d="M1021.17 35.139c0-105.164-256.065-160.186-509.004-160.186-252.949 0-509.022 55.022-509.022 160.186 0 93.327 197.239 132.232 282.065 144.631 12.568 1.781 24.292-7.101 26.090-19.93 1.825-12.854-6.94-24.769-19.552-26.609-176.643-25.806-232.053-73.868-232.053-98.092 0-46.14 169.903-107.984 452.473-107.984 282.56 0 452.457 61.844 452.457 107.984 0 24.412-56.043 72.738-234.391 98.419-12.622 1.825-21.4 13.735-19.627 26.562 1.796 12.861 13.52 21.713 26.067 19.991 85.538-12.34 284.499-51.124 284.499-144.972zM512.163 826.142c134.405 0 243.776-111.426 243.776-248.4 0-189.766-188.81-402.988-243.962-461.221-55.309 57.172-243.6 266.155-243.6 461.221 0 136.966 109.349 248.4 243.787 248.4zM496.386 46.312l15.959-15.172 15.768 15.367c11.746 11.463 287.607 283.578 287.607 537.194 0 170.548-136.179 309.288-303.566 309.288-167.381 0-303.571-138.741-303.571-309.289 0-260.45 276.055-526.205 287.802-537.411v0.021zM414.543 593.496c0 54.833 43.779 99.436 97.588 99.436 53.833 0 97.641-44.603 97.641-99.436 0-54.834-43.809-99.459-97.641-99.459-53.81-0.001-97.588 44.625-97.588 99.459zM666.32 593.496c0 86.608-69.163 157.058-154.189 157.058-84.98 0-154.122-70.451-154.122-157.058 0-86.599 69.142-157.060 154.122-157.060 85.026-0.001 154.189 70.461 154.189 157.060zM666.32 593.496z"  horiz-adv-x="1024" />

    
    <glyph glyph-name="polygonal" unicode="&#58897;" d="M959.886285 465.763189c0 45.212738-36.651758 81.864496-81.864496 81.864495a81.731466 81.731466 0 0 1-25.725918-4.148483L593.559039 729.714789c0.186242 2.252297 0.304945 4.523013 0.304945 6.823406 0 45.212738-36.651758 81.863473-81.863472 81.863473-45.213761 0-81.865519-36.650735-81.86552-81.863473 0-1.741667 0.072655-3.464915 0.180102-5.178953L176.008154 541.917636a81.602529 81.602529 0 0 1-30.03199 5.711072c-45.213761 0-81.864496-36.652781-81.864496-81.864496 0-37.934984 25.805736-69.831438 60.818158-79.119989l96.627734-291.548122c-18.525935-15.007809-30.378891-37.930891-30.378891-63.632249 0-45.212738 36.650735-81.864496 81.864496-81.864496 29.007661 0 54.471612 15.10093 69.012793 37.856189l333.273433 2.728134c14.205537-24.270776 40.532135-40.584324 70.684875-40.584323 45.212738 0 81.864496 36.651758 81.864496 81.864496 0 22.056342-8.738012 42.059931-22.921035 56.779167l93.446275 298.215986c35.352159 9.05933 61.482283 41.129746 61.482283 79.304184z m-782.25005-75.511811c29.489638 12.379958 50.204425 41.524742 50.204425 75.511811 0 15.4509-4.285606 29.898961-11.725042 42.2298l234.354515 174.579107c15.003715-17.092283 36.998659-27.897374 61.530379-27.897373 24.096814 0 45.75816 10.41521 60.738339 26.985607l237.07037-170.639378c-8.619308-12.96529-13.651928-28.52159-13.651928-45.25674 0-33.856086 20.554128-62.908772 49.862641-75.369572l-87.137592-278.081412a82.550111 82.550111 0 0 1-12.866029 1.014096c-41.893132 0-76.414367-31.475875-81.259722-72.063269l-310.185598-2.538823c-3.677762 41.807175-38.762839 74.602092-81.525782 74.602092-1.206478 0-2.402723-0.038886-3.596921-0.091074l-91.812055 277.015128z"  horiz-adv-x="1024" />

    
    <glyph glyph-name="enlarge" unicode="&#58917;" d="M682.56256 502.96832l-131.42016 0L551.1424 632.6272c0 0-7.35744 35.22048-41.69728 35.22048-39.3472 0-45.91616-35.22048-45.91616-35.22048l0-129.65888L332.1088 502.96832c0 0-33.55648-5.84192-33.55648-42.71104 0-36.29056 33.55648-43.70944 33.55648-43.70944l131.42016 0 0-129.664c0 0 9.96352-35.84 45.91616-35.84 36.10624 0 41.69728 35.84 41.69728 35.84L551.1424 416.54784l131.42016 0c0 0 35.84 10.55744 35.84 43.50464C718.40256 498.00704 682.56256 502.96832 682.56256 502.96832zM745.0624 200.96511999999996c71.54176 63.58016 116.52608 155.6736 116.52608 258.1248 0 191.8208-157.62944 347.31008-352.06144 347.3152-194.44736 0-352.0768-155.48928-352.0768-347.31008 0-191.80032 157.62944-347.33056 352.0768-347.33056 37.94432 0 74.48064 5.94432 108.7232 16.90624l76.02176-122.3424c0 0 35.60448-42.59328 96.03584-11.74016 0 0 63.3856 41.93792 26.69568 101.58592L745.0624 200.96511999999996zM510.46912 159.00671999999997c-168.33024 0-304.78336 134.58944-304.78336 300.69248 0 166.07232 136.45312 300.68736 304.78336 300.68736 168.33536 0 304.7936-134.61504 304.7936-300.68736C815.26272 293.59616000000005 678.80448 159.00671999999997 510.46912 159.00671999999997z"  horiz-adv-x="1024" />

    
    <glyph glyph-name="withdraw" unicode="&#58888;" d="M409.77353516-9.994335940000042c-16.5234375 0-39.46289063 7.734375-65.91796875 37.79296875l-259.36523438 295.3125c-29.97070313 34.1015625-29.97070313 87.5390625 0 121.72851563l259.453125 295.3125c12.48046875 14.15039063 25.04882813 24.52148438 37.52929688 30.67382812 20.12695313 10.01953125 36.12304688 7.64648438 46.14257812 3.8671875 14.94140625-5.625 39.99023438-23.64257813 39.99023438-81.12304687v-15.99609375c0-15.55664063-12.56835938-28.125-28.125-28.125s-28.125 12.56835938-28.125 28.125v15.99609375c0 15.64453125-2.4609375 23.64257813-4.04296875 27.24609375-3.60351563-1.58203125-10.72265625-6.06445313-21.00585938-17.75390625l-259.54101562-295.3125c-11.07421875-12.65625-11.07421875-34.8046875 0-47.37304688l259.453125-295.3125c10.28320313-11.68945313 17.40234375-16.171875 21.00585937-17.75390625 1.58203125 3.60351563 4.04296875 11.6015625 4.04296875 27.24609375v211.2890625c0 15.55664063 12.56835938 28.125 28.125 28.125s28.125-12.56835938 28.125-28.125v-211.46484375c0-18.89648438-2.63671875-34.89257813-7.91015625-47.8125-8.52539063-20.7421875-22.1484375-29.61914063-32.08007812-33.31054687-4.5703125-1.7578125-10.546875-3.25195313-17.75390625-3.25195313zM933.95322266 93.54082030999996c-5.00976563 0-10.10742188 1.40625-14.67773438 4.04296875-125.15625 76.11328125-176.66015625 100.28320313-228.07617187 118.21289063-63.89648438 22.32421875-131.66015625 34.36523438-249.78515625 44.20898437-15.55664063 1.31835938-26.98242188 14.94140625-25.75195313 30.41015625 1.31835938 15.55664063 14.94140625 26.98242188 30.41015625 25.75195313 123.31054688-10.28320313 194.765625-23.02734375 263.671875-47.109375 55.28320313-19.3359375 108.45703125-46.31835938 176.1328125-85.78125-25.75195313 73.74023438-59.765625 136.84570313-101.51367187 188.4375-42.890625 52.82226563-94.04296875 93.77929688-152.13867188 121.640625-99.66796875 47.72460938-186.6796875 40.51757813-187.55859375 40.51757812-15.46875-1.49414063-29.1796875 9.93164063-30.67382812 25.3125s9.93164063 29.1796875 25.3125 30.67382813c4.04296875 0.43945313 101.07421875 8.96484375 214.18945312-44.20898438 66.18164063-31.20117188 124.453125-77.08007813 173.05664063-136.66992187 59.94140625-73.38867188 105.29296875-167.60742188 134.47265625-280.10742188 2.90039063-11.07421875-1.31835938-22.8515625-10.37109375-29.70703125-4.921875-3.69140625-10.72265625-5.625-16.69921875-5.625z"  horiz-adv-x="1024" />

    
    <glyph glyph-name="ranging" unicode="&#58896;" d="M862.46723266 526.9788145800001L650.50938631 738.93666165c-20.73500691 20.73500691-32.25445487 20.73500691-50.68557203 2.30388974C450.07098793 593.79161477 302.62205058 446.34267742 155.17311397 296.58985107c-16.12722743-16.12722743-18.43111717-32.25445487 0-50.68557203 73.72446867-71.42057894 145.14504688-145.14504688 218.86951555-218.86951556 6.9116692-6.9116692 13.8233377-11.51944796 23.03889664-11.51944796 13.8233377 0 20.73500691 9.21555822 29.95056513 16.12722743l437.73903111 437.7390311c18.43111717 25.34278566 18.43111717 34.5583446-2.30388974 57.59724053zM786.43887498 473.98935353L420.12042207 107.67090064000001c-18.43111717-18.43111717-32.25445487-18.43111717-50.68557202 0l-138.23337767 138.2333784c-13.8233377 13.8233377-20.73500691 27.64667539-6.91166922 43.77390354 11.51944796 16.12722743 20.73500691 23.03889664 36.86223434 4.60777875 20.73500691-23.03889664 43.77390282-43.77390282 64.50890973-66.81279946 9.21555822-9.21555822 13.8233377-11.51944796 25.34278638 0 25.34278566 25.34278566 25.34278566 25.34278566 0 50.68557203L293.40649237 335.75597513c-9.21555822 9.21555822-11.51944796 13.8233377 0 25.34278565 27.64667539 27.64667539 25.34278566 27.64667539 52.98946176 0 9.21555822-9.21555822 20.73500691-18.43111717 27.64667539-27.64667538 16.12722743-20.73500691 27.64667539-20.73500691 43.77390355 0 11.51944796 13.8233377 16.12722743 20.73500691 0 32.25445486-11.51944796 9.21555822-23.03889664 23.03889664-34.5583446 32.25445486-27.64667539 27.64667539-27.64667539 27.64667539 2.30388901 55.29335151 9.21555822 6.9116692 11.51944796 9.21555822 20.73500691 0 20.73500691-23.03889664 43.77390282-43.77390282 64.50890971-66.81279946 13.8233377-13.8233377 23.03889664-20.73500691 39.16612407-2.30388974 13.8233377 16.12722743 23.03889664 23.03889664 2.30388974 41.47001381-23.03889664 18.43111717-41.47001381 41.47001381-64.50890972 62.20501999-11.51944796 11.51944796-9.21555822 16.12722743 0 25.34278564 25.34278566 23.03889664 23.03889664 25.34278566 48.38168229 0l41.47001309-41.47001308c6.9116692-9.21555822 13.8233377-6.9116692 20.7350069 0 29.95056513 25.34278566 29.95056513 25.34278566 0 52.98946178-11.51944796 11.51944796-23.03889664 25.34278566-36.86223434 36.86223361-18.43111717 16.12722743-2.30388974 23.03889664 6.91166922 29.95056585 9.21555822 6.9116692 13.8233377 27.64667539 32.25445486 9.21555822l69.1166892-69.11668921c18.43111717-23.03889664 25.34278566 0 36.86223434 6.91166922 13.8233377 9.21555822 18.43111717 18.43111717 2.30388973 32.25445486-23.03889664 18.43111717-41.47001381 39.16612407-62.2050207 62.20501999-6.9116692 6.9116692-20.73500691 11.51944796-13.8233377 20.73500691 6.9116692 11.51944796 16.12722743 23.03889664 32.25445486 23.03889663 11.51944796 0 18.43111717-4.60777946 25.34278637-11.51944867l138.2333784-138.2333784c18.43111717-20.73500691 18.43111717-34.5583446-2.30388973-52.98946105z"  horiz-adv-x="1024" />

    
    <glyph glyph-name="orderIssued" unicode="&#59546;" d="M800 704H640c0 70.4-57.6 128-128 128s-128-57.6-128-128H224c-17.6 0-32-14.4-32-32v-704c0-17.6 14.4-32 32-32h576c17.6 0 32 14.4 32 32V672c0 17.6-14.4 32-32 32z m-288 32c17.6 0 32-14.4 32-32s-14.4-32-32-32-32 14.4-32 32 14.4 32 32 32z m256-736H256V640h64v-64h384v64h64v-640z m-64 384H320v64h384v-64z m0-128H320v64h384v-64zM576 128H320v64h256v-64z"  horiz-adv-x="1024" />

    
    <glyph glyph-name="setting" unicode="&#59575;" d="M588.8 768l12-83.2 4.8-34.4 31.2-14.4c12.8-6.4 26.4-13.6 38.4-21.6l28-18.4 31.2 12 81.6 32 76-127.2-67.2-51.2-28-21.6 3.2-35.2c0.8-7.2 0.8-14.4 0.8-20.8s0-13.6-0.8-20.8l-3.2-35.2 28-21.6 67.2-51.2-75.2-127.2-82.4 32-31.2 12-28-18.4c-12.8-8.8-25.6-16-38.4-21.6l-31.2-14.4-4.8-33.6-12-84H435.2l-12 83.2-4.8 34.4-31.2 14.4c-12.8 6.4-26.4 13.6-38.4 21.6l-28 18.4-31.2-12L208 128l-76 127.2 67.2 51.2 28 21.6-3.2 35.2c-0.8 7.2-0.8 14.4-0.8 20.8s0 13.6 0.8 20.8l3.2 35.2-28 21.6-67.2 51.2L207.2 640l82.4-32 31.2-12 28 18.4c12.8 8.8 25.6 16 38.4 21.6l31.2 14.4 4.8 33.6L435.2 768h153.6m8.8 64H426.4c-27.2 0-49.6-19.2-53.6-44.8L360 694.4c-16-7.2-31.2-16-47.2-26.4l-90.4 35.2c-6.4 2.4-12.8 3.2-19.2 3.2-19.2 0-37.6-9.6-46.4-26.4L71.2 536c-13.6-22.4-8-52 12.8-68l76-57.6c-0.8-9.6-1.6-18.4-1.6-26.4s0-16.8 1.6-26.4l-76-57.6c-20.8-16-26.4-44-12.8-68l84.8-143.2c9.6-16.8 28-27.2 47.2-27.2 6.4 0 12 0.8 18.4 3.2L312 100c15.2-10.4 31.2-19.2 47.2-26.4l13.6-92c3.2-25.6 26.4-45.6 53.6-45.6h171.2c27.2 0 49.6 19.2 53.6 44.8l13.6 92.8c16 7.2 31.2 16 47.2 26.4l90.4-35.2c6.4-2.4 12.8-3.2 19.2-3.2 19.2 0 37.6 9.6 46.4 26.4l85.6 144.8c12.8 23.2 7.2 51.2-13.6 67.2l-76 57.6c0.8 8 1.6 16.8 1.6 26.4 0 9.6-0.8 18.4-1.6 26.4l76 57.6c20.8 16 26.4 44 12.8 68l-84.8 143.2c-9.6 16.8-28 27.2-47.2 27.2-6.4 0-12-0.8-18.4-3.2L712 668c-15.2 10.4-31.2 19.2-47.2 26.4l-13.6 92c-4 26.4-26.4 45.6-53.6 45.6zM512 512c70.4 0 128-57.6 128-128s-57.6-128-128-128-128 57.6-128 128 57.6 128 128 128m0 64c-105.6 0-192-86.4-192-192s86.4-192 192-192 192 86.4 192 192-86.4 192-192 192z"  horiz-adv-x="1024" />

    
    <glyph glyph-name="position" unicode="&#59646;" d="M512 768c169.6 0 308-138.4 308-308 0-81.6-31.2-158.4-88.8-216l-4.8-4L512 26.399999999999977 298.4 239.20000000000005l-4.8 4.8c-57.6 57.6-88.8 134.4-88.8 216C204 629.6 342.4 768 512 768m0 64C306.4 832 140 665.6 140 460c0-101.6 40.8-194.4 107.2-261.6L512-64l264 263.2c66.4 67.2 107.2 159.2 107.2 261.6C884 665.6 717.6 832 512 832z m0-192c73.6 0 132.8-62.4 128-137.6-4.8-63.2-55.2-113.6-118.4-118.4-74.4-5.6-137.6 53.6-137.6 128 0 70.4 57.6 128 128 128"  horiz-adv-x="1024" />

    
    <glyph glyph-name="statisticalReport" unicode="&#59652;" d="M128 768h64v-768h-64zM320 384h64v-256h-64zM576 448h64v-320h-64zM704 640h64v-512h-64zM448 512h64v-384h-64zM128 0v64h768v-64z"  horiz-adv-x="1024" />

    
    <glyph glyph-name="backstageManagement" unicode="&#59662;" d="M865.6 753.6c-0.8 8-8 14.4-16 14.4H174.4c-8 0-15.2-6.4-16-14.4 0 0-30.4-236.8-30.4-241.6 0-41.6 26.4-77.6 64-90.4V16c0-8.8 7.2-16 16-16h608c8.8 0 16 7.2 16 16V421.6c37.6 12.8 64 48.8 64 90.4 0 5.6-30.4 241.6-30.4 241.6zM424 510.4c-12.8-3.2-24-9.6-32-19.2-3.2-4-11.2-11.2-24-11.2s-20 7.2-24 11.2c-8 8.8-18.4 16-30.4 19.2L335.2 704H432l-8-193.6zM560 704l8-193.6a66.4 66.4 0 0 1-32-19.2c-3.2-4-11.2-11.2-24-11.2s-20 7.2-24 11.2c-8 9.6-19.2 16-32 19.2l8 192.8 96 0.8z m40-193.6L592 704h96.8l21.6-193.6c-12-3.2-22.4-9.6-30.4-19.2-3.2-4-11.2-11.2-24-11.2s-20 7.2-24 11.2a66.4 66.4 0 0 1-32 19.2z m-352-19.2c-4-4-11.2-11.2-24-11.2-16.8 0-30.4 12.8-32 29.6 2.4 19.2 14.4 115.2 24 194.4h87.2l-21.6-192.8c-12.8-3.2-24.8-10.4-33.6-20zM576 64H448V192h128v-128z m192 0H640V256H384v-192H256V421.6c15.2 5.6 29.6 15.2 40 27.2 17.6-20 43.2-32.8 72-32.8s54.4 12.8 72 32.8c17.6-20 43.2-32.8 72-32.8s54.4 12.8 72 32.8c17.6-20 43.2-32.8 72-32.8s54.4 12.8 72 32.8c10.4-12 24.8-21.6 40-27.2V64z m32 416c-12.8 0-20 7.2-24 11.2a68.96 68.96 0 0 1-33.6 20L720.8 704H808c10.4-78.4 22.4-175.2 24-194.4-0.8-16.8-15.2-29.6-32-29.6z"  horiz-adv-x="1024" />

    
    <glyph glyph-name="userManagement" unicode="&#59663;" d="M512.8 320c-128 0-383.2-64-383.2-192v-96c0-17.6 14.4-32 32-32h191.2V160h320v-160h192c17.6 0 32 14.4 32 32V128.79999999999995C896 256 640.8 320 512.8 320z m319.2-256H704V176c0 8.8-7.2 16-16 16H336c-8.8 0-16-7.2-16-16v-112H192.8v64.8c0 26.4 40 58.4 103.2 84 75.2 29.6 162.4 43.2 216 43.2 53.6 0 140.8-13.6 216-43.2 64-25.6 103.2-57.6 103.2-84l0.8-64.8z m-256 32h64v-32h-64v32z m-64-64h128v-32H512v32zM512 832c-101.6 0-187.2-67.2-214.4-160H192v-32h98.4c-1.6-10.4-2.4-20.8-2.4-32 0-124 100-224 224-224s224 100 224 224S636 832 512 832z m0-64c63.2 0 116.8-36.8 143.2-89.6C622.4 691.2 574.4 704 512 704c-60 0-108-11.2-142.4-23.2C396 732 449.6 768 512 768z m0-320c-88 0-160 72-160 160 0 11.2 0.8 21.6 3.2 32 30.4 13.6 84 32 156.8 32 78.4 0 132-21.6 156.8-34.4 1.6-9.6 3.2-19.2 3.2-29.6 0-88-72-160-160-160z"  horiz-adv-x="1024" />

    
    <glyph glyph-name="calendar" unicode="&#59669;" d="M352 768h32v-128h-32zM640 320h128v-32H640zM416 704h192v-32H416zM640 768h32v-128h-32zM448 448h128v-32H448zM640 448h128v-32H640zM448 320h128v-32H448zM256 320h128v-32H256zM864 704H704v-32h160v-64H160v64h160v32H160c-17.6 0-32-14.4-32-32v-640c0-17.6 14.4-32 32-32h704c17.6 0 32 14.4 32 32V672c0 17.6-14.4 32-32 32z m0-672H160V576h704v-544zM256 192h128v-32H256zM256 448h128v-32H256zM448 192h128v-32H448z"  horiz-adv-x="1024" />

    
    <glyph glyph-name="empty" unicode="&#59127;" d="M590.208 441.824v-210.496a32 32 0 1 1 64 0v210.496a32 32 0 1 1-64 0M398.208 441.824v-210.496a32 32 0 1 1 64 0v210.496a32 32 0 1 1-64 0M377.664 636.416l-8.896 63.36 253.504 35.648 8.928-63.392-253.536-35.616z m443.616 62.336l-126.72-17.792-11.872 84.416a36.512 36.512 0 0 1-14.432 24.224c-16.416 12.384-41.28 11.072-54.752 9.216L359.68 763.136c-46.592-6.56-60.16-30.688-57.28-51.072l11.84-84.544-126.72-17.824a32 32 0 1 1 8.928-63.36l45.92 6.432a31.36 31.36 0 0 1-4.192-14.976v-447.936c0-35.328 28.704-64.032 64-64.032h447.968a64.096 64.096 0 0 1 64 64.032V537.792a32 32 0 1 1-64 0v-447.968l-448 0.032V537.792a31.744 31.744 0 0 1-8.992 22.112l537.056 75.488a32 32 0 0 1 27.2 36.16 31.648 31.648 0 0 1-36.16 27.2z"  horiz-adv-x="1024" />

    
    <glyph glyph-name="daohang" unicode="&#58988;" d="M549.096-69.52a15.888 15.888 0 0 0-12.768 14.792l-19.272 385.72-369.192 110.192a15.888 15.888 0 0 0-11.328 15.952 16.224 16.224 0 0 0 12.568 15.168l738.704 170.632c5.816 1.392 11.136-1.304 14.92-5.528 0.2-0.152 0.472-0.072 0.664-0.248 0.336-0.24 0.344-0.76 0.64-1.072 0.504-0.704 1.432-0.992 1.8-1.816 0.224-0.408-0.024-0.92 0.152-1.344 2.928-4.664 4.16-10.208 1.544-15.384l-340.72-678.416a16.208 16.208 0 0 0-17.712-8.648zM215.544 454.672l312.432-93.208 297.064 234.048-609.496-140.84z"  horiz-adv-x="1024" />

    
    <glyph glyph-name="screenshot" unicode="&#58891;" d="M274.94250488 357.55041502999995h-0.4119873c-14.3371582 0-26.11999512-11.70043945-26.11999511-26.11999511v-154.74243164c-0.08239747-0.98876953-0.16479492-1.89514161-0.16479493-2.88391114v-0.4119873c0-5.02624512 1.40075684-9.72290039 3.87268066-13.67797851 4.53186036-7.66296387 12.93640137-12.77160645 22.41210938-12.77160645h0.41198731c1.40075684 0 2.80151367 0.08239747 4.11987304 0.32958985h153.67126465c14.3371582 0 26.11999512 11.70043945 26.11999512 26.11999511v0.41198731c0 14.3371582-11.70043945 26.11999512-26.11999512 26.11999512H301.0625V331.43041991999996c0 14.3371582-11.70043945 26.11999512-26.11999512 26.11999512zM722.85510254 437.64074708c0-14.3371582 11.70043945-26.11999512 26.11999512-26.11999513h0.4119873c14.3371582 0 26.11999512 11.70043945 26.11999512 26.11999513V591.80639648c0.16479492 1.15356445 0.24719239 2.30712891 0.24719238 3.54309083v0.4119873c0 6.7565918-2.63671875 12.93640137-6.83898926 17.55065918-4.77905273 5.35583497-11.78283692 8.81652833-19.52819824 8.81652832h-0.4119873c-1.23596192 0-2.38952637-0.08239747-3.54309083-0.24719239H591.26635742c-14.3371582 0-26.11999512-11.70043945-26.11999512-26.11999511v-0.41198731c0-14.3371582 11.70043945-26.11999512 26.11999512-26.11999511h131.58874512v-131.58874512zM616.56237793 67.59375a26.53198242 26.44958497 0 1 1 53.06396484 0 26.53198242 26.44958497 0 1 1-53.06396484 0ZM776.00146484 724.96069336H248.49291992c-58.0078125 0-105.46875-47.4609375-105.46875-105.46875v-473.04382325c0-58.0078125 47.4609375-105.46875 105.46875-105.46874999h288.39111328v0.24719238c14.66674805 0 26.53198242 11.86523438 26.53198242 26.44958497 0 14.58435059-11.86523438 26.44958497-26.53198242 26.44958495H248.328125c-29.00390625 0-52.734375 23.73046875-52.734375 52.734375v472.96142578c0 29.00390625 23.73046875 52.734375 52.734375 52.734375h528.25012207c29.00390625 0 52.734375-23.73046875 52.734375-52.734375v-473.04382324c0-29.00390625-23.73046875-52.734375-52.734375-52.73437499h-27.35595703c-14.66674805 0-26.53198242-11.86523438-26.53198242-26.44958497 0-14.58435059 11.86523438-26.44958497 26.53198242-26.44958496v-0.16479492h26.69677735c58.0078125 0 105.46875 47.4609375 105.46875 105.46874999V619.49194336c0.08239747 58.0078125-47.37854004 105.46875-105.38635255 105.46875z"  horiz-adv-x="1024" />

    
    <glyph glyph-name="rectangle" unicode="&#59146;" d="M870.4 151.03999999999996V565.76c43.52 10.24 76.8 51.2 76.8 99.84 0 56.32-46.08 102.4-102.4 102.4-48.64 0-87.04-33.28-99.84-76.8H330.24c-10.24 43.52-51.2 76.8-99.84 76.8-56.32 0-102.4-46.08-102.4-102.4 0-48.64 33.28-87.04 76.8-99.84v-417.28c-43.52-10.24-76.8-51.2-76.8-99.84 0-56.32 46.08-102.4 102.4-102.4 48.64 0 87.04 33.28 99.84 76.8h417.28c10.24-43.52 51.2-76.8 99.84-76.8 56.32 0 102.4 46.08 102.4 102.4-2.56 51.2-35.84 89.6-79.36 102.4zM844.8 716.8c28.16 0 51.2-23.04 51.2-51.2s-23.04-51.2-51.2-51.2-51.2 23.04-51.2 51.2 23.04 51.2 51.2 51.2zM179.2 665.6c0 28.16 23.04 51.2 51.2 51.2s51.2-23.04 51.2-51.2-23.04-51.2-51.2-51.2-51.2 23.04-51.2 51.2z m51.2-665.6c-28.16 0-51.2 23.04-51.2 51.2s23.04 51.2 51.2 51.2 51.2-23.04 51.2-51.2-23.04-51.2-51.2-51.2z m514.56 76.8H330.24c-10.24 35.84-38.4 64-74.24 74.24V565.76c35.84 10.24 64 38.4 74.24 74.24h417.28c10.24-35.84 38.4-64 74.24-74.24v-417.28c-38.4-7.68-66.56-35.84-76.8-71.68z m99.84-76.8c-28.16 0-51.2 23.04-51.2 51.2s23.04 51.2 51.2 51.2 51.2-23.04 51.2-51.2-23.04-51.2-51.2-51.2z"  horiz-adv-x="1024" />

    
    <glyph glyph-name="boxZoomOut" unicode="&#59151;" d="M464 360H248c-14.4 0-24-9.6-24-24s9.6-24 24-24h158.4l-163.2-163.2 33.6-33.6 163.2 163.2V120c0-14.4 9.6-24 24-24s24 9.6 24 24v216c0 7.2-2.4 12-7.2 16.8-4.8 4.8-9.6 7.2-16.8 7.2z m312 96h-158.4l163.2 163.2-33.6 33.6-163.2-163.2V648c0 14.4-9.6 24-24 24s-24-9.6-24-24v-216c0-7.2 2.4-12 7.2-16.8 4.8-4.8 9.6-7.2 16.8-7.2h216c14.4 0 24 9.6 24 24 0 12-9.6 24-24 24z m24 312H224C171.2 768 128 724.8 128 672v-576c0-52.8 43.2-96 96-96h576c52.8 0 96 43.2 96 96V672c0 52.8-43.2 96-96 96z m48-672c0-26.4-21.6-48-48-48H224c-26.4 0-48 21.6-48 48V672c0 26.4 21.6 48 48 48h576c26.4 0 48-21.6 48-48v-576z"  horiz-adv-x="1024" />

    
    <glyph glyph-name="selectDel" unicode="&#59700;" d="M399.9921875 384l249.08203098 249.1171875L599.36328152 682.82812527 301.0625 384.52734375l0.49218723-0.52734375-0.49218723-0.49218723 298.30078152-298.33593804 49.71093696 49.74609429L399.9921875 384z"  horiz-adv-x="1024" />

    
    <glyph glyph-name="moveToFirstPlace" unicode="&#59723;" d="M512.00000031 393.28000031l-243.40000031-243.44000062L212.00000031 206.44000030999996l299.4 299.4 0.55999969-0.6 0.6 0.6L812.00000031 206.39999999999998l-56.5600003-56.59999969-243.43999969 243.43999969zM812.00000031 544.00000031L812.00000031 623.99999999l-600 0 0-79.99999968L812.00000031 544.00000031z"  horiz-adv-x="1024" />

    
    <glyph glyph-name="bulkAdd" unicode="&#59757;" d="M400.7139552 361.2444448L214.7555552 175.33155520000003 279.10826666 110.93333332999998l249.6284448 249.6284448-0.63715626 0.6371552 0.63715626 0.68266667L279.10826666 611.5555552000001 214.7555552 547.2028448 400.7139552 361.2444448z m273.06666666 0L487.82222186 175.33155520000003 552.17493333 110.93333332999998l249.6284448 249.6284448-0.63715627 0.6371552 0.63715627 0.68266667L552.17493333 611.5555552000001 487.82222186 547.2028448l185.9584-185.9584z"  horiz-adv-x="1024" />

    
    <glyph glyph-name="boxEnlarge" unicode="&#58894;" d="M831.89 704l0.11-0.11v-639.78l-0.11-0.11H192.11l-0.11 0.11V703.89l0.11 0.11h639.78m0.11 64H192a64.19 64.19 0 0 1-64-64v-640a64.19 64.19 0 0 1 64-64h640a64.19 64.19 0 0 1 64 64V704a64.19 64.19 0 0 1-64 64zM800 672H512v-64h288v64zM800 672h-64v-288h64V672zM745.37 662.63L512 429.25 557.25 384l233.38 233.37-45.26 45.26zM512 160H224v-64h288v64zM288 384h-64v-288h64V384zM466.75 384L233.37 150.63l45.26-45.26L512 338.75 466.75 384z"  horiz-adv-x="1024" />

    
    <glyph glyph-name="timeOut" unicode="&#58882;" d="M761.38666667 1.7066666700000042h-95.04c-22.82666667 0-41.28 18.45333333-41.28 41.28V725.01333333c0 22.82666667 18.45333333 41.28 41.28 41.28h95.04c22.82666667 0 41.28-18.45333333 41.28-41.28v-682.02666666c-0.10666667-22.82666667-18.56-41.28-41.28-41.28zM373.12 1.7066666700000042h-95.04c-22.82666667 0-41.28 18.45333333-41.28 41.28V725.01333333c0 22.82666667 18.45333333 41.28 41.28 41.28h95.04c22.82666667 0 41.28-18.45333333 41.28-41.28v-682.02666666c0-22.82666667-18.56-41.28-41.28-41.28z"  horiz-adv-x="1024" />

    
    <glyph glyph-name="zoomOut" unicode="&#58952;" d="M550.912 416.768h131.584s35.84 10.752 35.84 43.52c0 37.888-35.84 43.008-35.84 43.008H332.288s-33.792-5.632-33.792-42.496c0-36.352 33.792-43.52 33.792-43.52h218.624z m194.048-215.552c71.68 63.488 116.736 155.648 116.736 258.048 0 192-157.696 347.136-352.256 347.136S157.184 650.752 157.184 459.264c0-192 157.696-347.136 352.256-347.136 37.888 0 74.24 6.144 108.544 16.896l75.776-122.368s35.84-42.496 96.256-11.776c0 0 63.488 41.984 26.624 101.376l-71.68 104.96z m-234.496-41.984c-168.448 0-304.64 134.656-304.64 300.544 0 165.888 136.704 300.544 304.64 300.544 168.448 0 304.64-134.656 304.64-300.544 0-166.4-136.192-300.544-304.64-300.544z"  horiz-adv-x="1024" />

    
    <glyph glyph-name="play" unicode="&#58883;" d="M820.05333333 422.6844448L292.1244448 750.3644448c-29.58222187 18.2044448-68.26666667-4.55111147-68.26666667-38.6844448v-655.36c0-34.13333333 38.6844448-56.88888853 68.26666667-38.6844448l525.65333333 327.68c31.85777813 15.92888853 31.85777813 61.44 2.2755552 77.3688896z"  horiz-adv-x="1024" />

    
    <glyph glyph-name="stop" unicode="&#58881;" d="M796.15625001 25.031249989999992H226.625c-42 0-76.03125001 34.03125001-76.03125001 76.03125001V670.5c0 42 34.03125001 76.03125001 76.03125001 76.03125001h569.53125001c42 0 76.03125001-34.03125001 76.03124999-76.03125001v-569.53125001c0-41.90625001-34.03125001-75.9375-76.03124999-75.9375z"  horiz-adv-x="1024" />

    
    <glyph glyph-name="info" unicode="&#58880;" d="M600.1 112c-18.5 0-31.4 3-38.8 8.9-7.4 5.9-11.3 17-11.3 33.1 0 6.5 1.1 16.1 3.5 28.6 2.2 12.6 5 23.8 7.8 33.6l35.5 122c3.5 11.3 5.9 23.4 7.2 36.9 1.3 13.5 2 22.9 2 28.1 0 25.7-9.2 46.7-27.9 62.8-18.6 16.1-45.1 24.2-79.4 24.2-19 0-39.1-3.3-60.6-9.8-21.4-6.6-43.8-14.6-67-23.6l-9.6-37.9c6.8 2.6 15.1 5.2 24.9 8.1 9.6 2.8 19.2 4.2 28.4 4.2 18.8 0 31.4-3.1 38-9.2 6.6-6.1 10-17.2 10-32.7 0-8.7-1.1-18.3-3.3-28.8-2.2-10.5-4.8-21.6-7.9-33.4L416 204.5c-3.1-12.9-5.5-24.4-6.8-34.7-1.5-10.2-2.2-20.3-2.2-30.1 0-25.1 9.6-46 28.8-62.4 19-16.2 45.8-24.4 80.3-24.4 22.5 0 42.1 3 59.1 8.7 17 5.7 39.7 14 68.3 24.9l9.4 37.9c-4.8-2.2-12.7-4.8-23.8-7.8-10.8-3.2-20.5-4.6-29-4.6z m37.3 579.4c-16.6 15.1-36.6 22.7-59.8 22.7-23.3 0-43.4-7.6-60-22.7-16.8-15.1-25.1-33.2-25.1-54.7 0-21.2 8.3-39.3 25.1-54.3 16.6-15 36.7-22.5 60-22.5 23.3 0 43.2 7.6 59.8 22.5 16.6 15 24.7 33.1 24.7 54.3 0 21.2-8.3 39.5-24.7 54.7z m0 0"  horiz-adv-x="1024" />

    
    <glyph glyph-name="oneBox" unicode="&#58884;" d="M832.9 830H191.8C122 830 65.3 773.4 65.3 703.6v-641.1C65.3-7.2999999999999545 122-64 191.8-64h641.1c69.8 0 126.5 56.6 126.5 126.5V703.6C959.3 773.4 902.7 830 832.9 830z m64.4-766.8c0-36-29.2-65.2-65.2-65.2H192.5c-36 0-65.2 29.2-65.2 65.2V702.8c0 36 29.2 65.2 65.2 65.2h639.6c36 0 65.2-29.2 65.2-65.2v-639.6z"  horiz-adv-x="1024" />

    
    <glyph glyph-name="fourBox" unicode="&#58885;" d="M832.9 830H191.8C122 830 65.3 773.4 65.3 703.6v-641.1C65.3-7.2999999999999545 122-64 191.8-64h641.1c69.8 0 126.5 56.6 126.5 126.5V703.6C959.3 773.4 902.7 830 832.9 830z m64.4-766.8c0-36-29.2-65.2-65.2-65.2H192.5c-36 0-65.2 29.2-65.2 65.2V702.8c0 36 29.2 65.2 65.2 65.2h639.6c36 0 65.2-29.2 65.2-65.2v-639.6zM95.3 414.8h832v-62.7h-832zM542.682 799.4590000000001v-832h-62.7v832z"  horiz-adv-x="1024" />

    
    <glyph glyph-name="nineBox" unicode="&#58886;" d="M832.9 830H191.8C122 830 65.3 773.4 65.3 703.6v-641.1C65.3-7.2999999999999545 122-64 191.8-64h641.1c69.8 0 126.5 56.6 126.5 126.5V703.6C959.3 773.4 902.7 830 832.9 830z m64.4-766.8c0-36-29.2-65.2-65.2-65.2H192.5c-36 0-65.2 29.2-65.2 65.2V702.8c0 36 29.2 65.2 65.2 65.2h639.6c36 0 65.2-29.2 65.2-65.2v-639.6zM98 553.2h830v-64.4H98zM98 282.20000000000005h830v-64.4H98zM407.463 797.817v-830h-64.4v830zM685.745 797.066v-830h-64.4v830z"  horiz-adv-x="1024" />

    
    <glyph glyph-name="lines" unicode="&#58889;" d="M122.71335517 152.16603140999996c7.51177407 0 15.02354815 3.24037312 20.03139753 9.7211194L337.60900965 407.56635005l241.4077983-241.55508797c5.30242877-5.30242877 12.66691315-8.24822251 19.88410786-7.5117741 7.36448439 0.58915875 14.13981003 4.27140094 18.55850065 10.16298847l304.30049499 406.37224862c8.54280189 11.34130596 6.1861669 27.24859225-5.1551391 35.64410444-11.34130596 8.54280189-27.24859225 6.1861669-35.79139413-5.00784939L594.33493549 222.86508156000002 353.51629593 463.83101077c-5.15513907 5.0078494-11.93046471 7.95364315-19.58952846 7.36448442-7.2171947-0.44186907-13.99252034-3.82953187-18.55850066-9.57382973l-212.6863092-268.06723177c-8.83738127-10.89943689-6.92261532-27.10130255 4.12411128-35.93868383 4.71327001-3.68224221 10.31027814-5.44971845 15.90728628-5.44971845"  horiz-adv-x="1024" />

    
    <glyph glyph-name="batchDel" unicode="&#59758;" d="M623.2860448 406.7555552L809.2444448 592.6684448 744.89173334 657.06666667l-249.6284448-249.6284448 0.63715625-0.6371552-0.63715625-0.68266667L744.89173334 156.44444480000004 809.2444448 220.79715520000002 623.2860448 406.7555552z m-273.06666666 0L536.17777814 592.6684448 471.82506667 657.06666667l-249.6284448-249.6284448 0.63715627-0.6371552-0.63715627-0.68266667L471.82506667 156.44444480000004 536.17777814 220.79715520000002l-185.9584 185.9584z"  horiz-adv-x="1024" />

    
    <glyph glyph-name="chooseAdd" unicode="&#59759;" d="M624.0078125 384l-249.08203098-249.1171875L424.63671848 85.17187473000001 722.93749999 383.47265625l-0.49218722 0.52734375 0.49218723 0.49218723-298.30078152 298.33593804-49.71093696-49.74609429L624.0078125 384z"  horiz-adv-x="1024" />

    
    <glyph glyph-name="moveOneDown" unicode="&#59760;" d="M512 314.65885417000004l-249.1171875 249.08203097L213.17187473 514.02994818 511.47265625 215.72916667000004l0.52734375 0.49218722 0.49218723-0.49218723 298.33593804 298.30078152-49.74609429 49.71093696L512 314.65885417000004z"  horiz-adv-x="1024" />

    
    <glyph glyph-name="moveOneBitUp" unicode="&#59761;" d="M512 474.67447916l249.1171875-249.08203097L810.82812527 275.30338515000005 512.52734375 573.6041666599999l-0.52734375-0.49218722-0.49218723 0.49218723-298.33593804-298.30078152 49.74609429-49.71093696L512 474.67447916z"  horiz-adv-x="1024" />

    
    <glyph glyph-name="moveToLastPlace" unicode="&#59762;" d="M511.99999969 374.71999969l243.40000031 243.44000062L811.99999969 561.55999969l-299.4-299.4-0.55999969 0.6-0.6-0.6L211.99999969 561.6l56.5600003 56.59999969 243.43999969-243.43999969zM211.99999969 223.99999968999998L211.99999969 144.00000001l600 0 0 79.99999968L211.99999969 223.99999968999998z"  horiz-adv-x="1024" />

    


  </font>
</defs>
</svg>
